<?xml version="1.0" encoding="UTF-8" standalone="no"?>
<!-- Created with Inkscape (http://www.inkscape.org/) -->

<svg
   width="120.43919mm"
   height="40.699039mm"
   viewBox="0 0 120.43919 40.699039"
   version="1.1"
   id="svg5"
   inkscape:version="1.1.1 (3bf5ae0d25, 2021-09-20)"
   sodipodi:docname="logo.svg"
   xmlns:inkscape="http://www.inkscape.org/namespaces/inkscape"
   xmlns:sodipodi="http://sodipodi.sourceforge.net/DTD/sodipodi-0.dtd"
   xmlns="http://www.w3.org/2000/svg"
   xmlns:svg="http://www.w3.org/2000/svg">
  <sodipodi:namedview
     id="namedview7"
     pagecolor="#ffffff"
     bordercolor="#666666"
     borderopacity="1.0"
     inkscape:pageshadow="2"
     inkscape:pageopacity="0.0"
     inkscape:pagecheckerboard="0"
     inkscape:document-units="mm"
     showgrid="false"
     inkscape:zoom="0.46324355"
     inkscape:cx="-86.347668"
     inkscape:cy="173.77468"
     inkscape:window-width="1366"
     inkscape:window-height="705"
     inkscape:window-x="-8"
     inkscape:window-y="-8"
     inkscape:window-maximized="1"
     inkscape:current-layer="layer1"
     fit-margin-top="0"
     fit-margin-left="0"
     fit-margin-right="0"
     fit-margin-bottom="0" />
  <defs
     id="defs2" />
  <g
     inkscape:label="Camada 1"
     inkscape:groupmode="layer"
     id="layer1"
     transform="translate(-36.122076,-99.2861)">
    <path
       style="fill:#ffffff;stroke-width:0.326521"
       d="m 51.549274,139.45032 c -11.278419,-3.05464 -17.785065,-14.34143 -14.633066,-25.38336 1.817417,-6.36668 7.156543,-11.83756 13.531817,-13.86574 11.210637,-3.566459 23.540168,3.66384 25.958653,15.22269 2.139194,10.22402 -3.878331,20.50878 -13.877366,23.71828 -3.086224,0.99062 -7.955583,1.12727 -10.980038,0.30813 z m 6.13814,-10.68964 c 1.262297,-1.14237 0.402799,-3.05135 -1.373839,-3.05135 -1.503265,0 -2.155178,1.80697 -1.080384,2.99462 0.67203,0.74258 1.670852,0.76567 2.454223,0.0568 z m 9.226611,-8.46227 c 0.607033,-0.60704 0.612241,-0.65068 0.175097,-1.46749 -0.323174,-0.60386 -0.788457,-0.63158 -10.600454,-0.63158 -9.444117,0 -10.285876,0.0455 -10.55633,0.57142 -0.325918,0.63368 -0.148898,1.42327 0.401501,1.79085 0.197554,0.13195 4.793468,0.24215 10.213137,0.2449 8.527232,0.004 9.92303,-0.0641 10.367049,-0.5081 z m -9.226611,-7.53728 c 1.117377,-1.01121 0.353831,-3.05134 -1.142012,-3.05134 -0.87384,0 -1.8526,0.91881 -1.8526,1.73913 0,1.565 1.829462,2.36666 2.994612,1.31221 z m 25.739259,19.82442 v -2.63144 h 0.956239 c 2.314276,0 2.757377,3.16253 0.521714,3.72365 -0.453703,0.11391 -0.824906,0.41598 -0.824906,0.67134 0,0.25536 -0.146944,0.55509 -0.32653,0.66609 -0.207365,0.12815 -0.326517,-0.7585 -0.326517,-2.42964 z m 1.944207,0.16196 c 0.616616,-0.74297 0.290951,-1.96109 -0.556491,-2.08144 -0.658624,-0.0935 -0.734669,0.0332 -0.734669,1.22445 0,1.40361 0.540028,1.76205 1.29116,0.85699 z m 2.627094,-0.18124 v -2.61216 h 0.956239 c 1.745518,0 2.548915,1.65812 1.517111,3.13121 -0.303254,0.43296 -0.361861,0.82788 -0.168256,1.13385 0.38389,0.60671 0.384828,0.95928 0.0025,0.95928 -0.167492,0 -0.397786,-0.29388 -0.511792,-0.65305 -0.114031,-0.35917 -0.417766,-0.65303 -0.675051,-0.65303 -0.257272,0 -0.467771,0.29386 -0.467771,0.65303 0,0.35917 -0.146932,0.65305 -0.326518,0.65305 -0.19047,0 -0.326529,-1.0884 -0.326529,-2.61218 z m 1.944207,0.18124 c 0.616616,-0.74297 0.290938,-1.96109 -0.556503,-2.08144 -0.658613,-0.0935 -0.73467,0.0332 -0.73467,1.22445 0,1.40361 0.54004,1.76205 1.291173,0.85699 z m 2.953612,-0.18124 c 0,-1.68398 0.11909,-2.57711 0.326517,-2.4489 0.179586,0.11094 0.326517,1.21299 0.326517,2.4489 0,1.23591 -0.146931,2.33792 -0.326517,2.44892 -0.207439,0.1282 -0.326517,-0.76492 -0.326517,-2.44892 z m 2.612162,0 c 0,-2.88638 0.392961,-3.35154 1.172268,-1.38771 0.267243,0.67345 0.59982,1.50623 0.73905,1.85063 0.205712,0.50883 0.371599,0.29942 0.885156,-1.11746 0.980736,-2.70573 1.448323,-2.49698 1.448323,0.64661 0,1.68928 -0.119091,2.58507 -0.32653,2.45685 -0.179585,-0.11095 -0.337908,-0.89108 -0.351828,-1.73351 l -0.0253,-1.53171 -0.546112,1.52788 c -0.300367,0.84035 -0.641002,1.62094 -0.756995,1.73465 -0.116005,0.11378 -0.508448,-0.6473 -0.872148,-1.69115 l -0.661278,-1.8979 -0.02579,1.8775 c -0.01419,1.03262 -0.172724,1.8775 -0.35231,1.8775 -0.19047,0 -0.326529,-1.0884 -0.326529,-2.61218 z m 6.530445,0 v -2.61216 h 1.14282 c 0.62855,0 1.14282,0.14693 1.14282,0.32652 0,0.17958 -0.36733,0.32651 -0.8163,0.32651 -0.65304,0 -0.8163,0.16326 -0.8163,0.81631 0,0.59862 0.17415,0.8163 0.65304,0.8163 0.35917,0 0.65304,0.14694 0.65304,0.32652 0,0.17959 -0.29387,0.32653 -0.65304,0.32653 -0.47889,0 -0.65304,0.21768 -0.65304,0.81629 0,0.65305 0.16326,0.81631 0.8163,0.81631 0.44897,0 0.8163,0.14694 0.8163,0.32653 0,0.17958 -0.51427,0.32652 -1.14282,0.32652 h -1.14282 z m 7.85936,2.14995 c -0.22603,-0.27237 -0.34305,-1.24211 -0.28486,-2.36083 0.091,-1.74821 0.17124,-1.92398 1.0139,-2.21903 1.07219,-0.37541 1.97305,0.048 2.11822,0.99557 0.0915,0.59658 0.0781,0.59729 -0.38166,0.0205 -0.28132,-0.35293 -0.78798,-0.55346 -1.23751,-0.48979 -0.69187,0.098 -0.76117,0.27132 -0.76117,1.90369 0,1.68655 0.0512,1.80182 0.84083,1.89367 0.61172,0.0712 0.93932,-0.10675 1.20235,-0.65303 0.34049,-0.70716 0.36283,-0.7119 0.38364,-0.0814 0.0123,0.36815 -0.15423,0.84569 -0.36973,1.0612 -0.53616,0.53616 -2.05578,0.49376 -2.52401,-0.0705 z m 4.87624,0.0733 c 0.002,-0.85999 1.15069,-4.4644 1.45466,-4.56677 0.17222,-0.058 0.57979,0.77617 0.90572,1.8537 0.32594,1.07751 0.67247,2.21626 0.77007,2.53054 0.0976,0.31427 0.0378,0.57141 -0.13294,0.57141 -0.17075,0 -0.3873,-0.29388 -0.48123,-0.65305 -0.20383,-0.77949 -1.86452,-0.94207 -1.86452,-0.18252 0,0.25878 -0.14693,0.56131 -0.32652,0.67231 -0.17958,0.11094 -0.32595,0.01 -0.32524,-0.22562 z m 1.95785,-2.20402 c 0,-0.34857 -0.14693,-0.72459 -0.32653,-0.83558 -0.17958,-0.11095 -0.32651,-0.0583 -0.32651,0.11724 0,0.1755 -0.0892,0.5515 -0.1982,0.83557 -0.13005,0.33893 -0.0178,0.51649 0.32653,0.51649 0.30171,0 0.52471,-0.26935 0.52471,-0.63377 z m 3.15638,2.37521 c -0.34745,-0.34744 -0.25143,-4.62075 0.10884,-4.84339 0.2059,-0.12726 0.32652,0.64965 0.32652,2.10311 v 2.30492 h 0.97957 c 0.53876,0 0.97956,0.14694 0.97956,0.32653 0,0.36124 -2.04895,0.45438 -2.39448,0.10885 z m 4.36509,-0.41389 c -0.52239,-0.97612 -0.4145,-3.49006 0.17511,-4.07966 0.96246,-0.96246 2.76692,-0.45131 2.74172,0.77665 -0.009,0.4152 -0.0917,0.39877 -0.46329,-0.0914 -0.27038,-0.35675 -0.75968,-0.55415 -1.21407,-0.48979 -0.69187,0.098 -0.76117,0.2713 -0.76117,1.90368 0,1.71731 0.0394,1.8004 0.89979,1.89937 0.58678,0.0675 0.96809,-0.0745 1.09613,-0.40815 0.10798,-0.28141 0.32294,-0.51166 0.47768,-0.51166 0.3548,0 -0.022,1.06181 -0.49065,1.38272 -0.69674,0.47708 -2.11975,0.25641 -2.46125,-0.38168 z m 5.51657,0.11428 c -0.55994,-0.6747 -0.82656,-4.22068 -0.33994,-4.52143 0.24989,-0.15445 0.36431,0.36592 0.36775,1.67257 0.006,2.24733 0.28817,2.80846 1.33802,2.66002 0.72213,-0.10206 0.78646,-0.27209 0.87592,-2.31423 0.0531,-1.2122 0.23676,-2.20401 0.40815,-2.20401 0.4202,0 0.39836,3.79908 -0.0264,4.59277 -0.41629,0.77783 -2.01499,0.8475 -2.62348,0.11427 z m 4.92063,-1.91238 c 0,-1.3363 0.14693,-2.52046 0.32652,-2.63144 0.20591,-0.12726 0.32653,0.64966 0.32653,2.10311 v 2.30492 h 0.97956 c 0.53876,0 0.97956,0.14695 0.97956,0.32653 0,0.17959 -0.58773,0.32652 -1.30609,0.32652 h -1.30608 z m 4.05173,1.85823 c 0.0976,-0.31428 0.43812,-1.43322 0.75668,-2.48652 0.31856,-1.05331 0.71487,-1.90607 0.88071,-1.89503 0.35019,0.0233 1.49296,3.49907 1.46744,4.46317 -0.016,0.60677 -0.0425,0.60098 -0.37161,-0.0816 -0.45174,-0.93667 -1.76245,-0.98885 -2.05039,-0.0816 -0.11403,0.35918 -0.35421,0.65305 -0.5338,0.65305 -0.17958,0 -0.24664,-0.25714 -0.14903,-0.57141 z m 2.14717,-1.79587 c -0.002,-0.22448 -0.12923,-0.60414 -0.28108,-0.84368 -0.22023,-0.34743 -0.31829,-0.32552 -0.48479,0.10836 -0.32417,0.84481 -0.25075,1.1435 0.28109,1.1435 0.26938,0 0.48753,-0.18367 0.48478,-0.40816 z m 3.92325,0.0816 c 0,-2.06797 -0.0622,-2.28565 -0.65303,-2.28565 -0.35917,0 -0.65305,-0.14694 -0.65305,-0.32652 0,-0.17959 0.66121,-0.32652 1.46936,-0.32652 0.80813,0 1.46934,0.14693 1.46934,0.32652 0,0.17958 -0.2204,0.32652 -0.48978,0.32652 -0.38873,0 -0.48979,0.47164 -0.48979,2.28565 0,1.30608 -0.13993,2.28565 -0.32652,2.28565 -0.18658,0 -0.32653,-0.97957 -0.32653,-2.28565 z m 3.98357,1.89382 c -0.50873,-0.50873 -0.50873,-3.93195 0,-4.44068 0.21551,-0.21551 0.77385,-0.39183 1.24078,-0.39183 1.26577,0 1.6326,0.58694 1.6326,2.61216 0,2.02523 -0.36683,2.61218 -1.6326,2.61218 -0.46693,0 -1.02527,-0.17633 -1.24078,-0.39183 z m 2.05709,-2.22035 c 0,-1.6979 -0.0445,-1.79587 -0.81631,-1.79587 -0.73042,0 -0.82706,0.14995 -0.91853,1.42508 -0.13431,1.87223 0.0974,2.39918 0.9987,2.27119 0.66193,-0.094 0.73614,-0.28554 0.73614,-1.9004 z m 2.97933,2.25127 c -0.13064,-0.2883 -0.19322,-1.46378 -0.13908,-2.61218 0.0951,-2.01857 0.12895,-2.09149 1.01611,-2.19322 0.50472,-0.0579 1.1292,0.0703 1.38772,0.28488 0.5334,0.44267 0.64109,2.77805 0.14232,3.0863 -0.18026,0.11144 -0.24723,0.59761 -0.14885,1.08046 l 0.17887,0.87793 -0.54402,-0.73467 c -0.29921,-0.40407 -0.73628,-0.73467 -0.97126,-0.73467 -0.23499,0 -0.48509,0.3306 -0.55578,0.73467 -0.10465,0.59835 -0.17259,0.63741 -0.36603,0.2105 z m 1.56525,-1.79642 c 0.33055,-0.12684 0.5165,-0.59704 0.5165,-1.30608 0,-0.96407 -0.10601,-1.10789 -0.81631,-1.10789 -0.73467,0 -0.8163,0.13061 -0.8163,1.30609 0,1.31237 0.1626,1.47378 1.11611,1.10788 z m -36.60396,-9.92624 c -0.9776,-0.39388 -1.4536,-1.40439 -1.71806,-3.64722 l -0.22418,-1.90136 h 1.24615 1.24616 v 1.42937 c 0,1.52192 0.61021,2.37397 1.46519,2.04588 0.37735,-0.14481 0.49393,-0.74211 0.49393,-2.53051 v -2.34097 l -1.97538,-1.83371 c -2.25337,-2.09174 -2.7247,-3.3228 -2.38497,-6.22925 0.27406,-2.34479 1.42972,-3.60166 3.31164,-3.60166 1.8345,0 2.87271,0.92828 3.30794,2.95766 0.19412,0.90519 0.35295,1.71201 0.35295,1.79297 0,0.081 -0.57929,0.14719 -1.28731,0.14719 -1.28061,0 -1.28783,-0.007 -1.38772,-1.3849 -0.0761,-1.0499 -0.2489,-1.4131 -0.71432,-1.50148 -0.88707,-0.16844 -1.17129,0.5006 -1.17694,2.77048 -0.005,2.15863 -0.09,2.02096 2.68086,4.36487 1.7733,1.50008 2.38981,4.53366 1.54188,7.5869 -0.5151,1.85479 -2.70044,2.71274 -4.77782,1.87574 z m 9.93755,-0.0238 c -1.36337,-0.79409 -1.67617,-2.17152 -1.81555,-7.99471 -0.20322,-8.49048 0.4968,-10.59085 3.5298,-10.59085 1.56494,0 2.81746,0.98032 3.25214,2.54539 0.41637,1.49919 0.43336,11.83784 0.0223,13.61741 -0.39418,1.70677 -1.63853,2.77844 -3.2111,2.7655 -0.66343,-0.005 -1.46338,-0.15969 -1.77767,-0.34275 z m 2.70189,-2.77053 c 0.50448,-1.32689 0.41021,-12.62601 -0.11131,-13.33921 -0.75266,-1.02933 -1.64483,-0.5158 -1.94363,1.11875 -0.31844,1.74206 -0.13602,11.66607 0.22954,12.48661 0.38307,0.85984 1.4568,0.70328 1.82539,-0.26615 z m -47.289991,-5.28472 c 0.11255,-8.65498 0.255779,-9.47169 1.783553,-10.16778 1.902851,-0.867 3.984216,-0.13807 4.583123,1.6051 0.25684,0.74754 0.396009,3.7786 0.408153,8.8892 l 0.01839,7.75488 h -1.142835 -1.142822 v -2.61217 -2.61217 h -1.142823 -1.142821 v 2.61217 2.61217 h -1.163518 -1.163518 z m 4.503154,-3.10195 c -0.0049,-4.79314 -0.155422,-5.54013 -1.085918,-5.40474 -0.929817,0.13531 -1.124545,1.06782 -1.162727,5.568 l -0.03258,3.83662 h 1.142822 1.142822 l -0.0049,-3.99988 z m 7.187931,10.88469 c 0,-0.50893 -1.282707,-15.13024 -1.456184,-16.59881 l -0.163937,-1.38772 h 1.265898 1.265887 l 0.213807,4.81618 c 0.117609,2.64892 0.318471,5.77127 0.446397,6.93859 0.216387,1.97451 0.273871,1.67879 0.825105,-4.24478 0.325875,-3.50194 0.664462,-6.6243 0.752379,-6.93858 0.105762,-0.37795 0.484062,-0.57141 1.117434,-0.57141 0.52665,0 0.95756,0.11465 0.95756,0.25485 0,0.75661 1.35576,13.29103 1.44751,13.38279 0.0599,0.0598 0.20553,-2.43307 0.32362,-5.53992 0.1181,-3.10685 0.2951,-6.19982 0.39332,-6.87326 0.1664,-1.1408 0.25473,-1.22446 1.29272,-1.22446 1.07438,0 1.1132,0.0437 1.08808,1.22446 -0.0143,0.67344 -0.34493,4.75087 -0.73468,9.06095 l -0.70862,7.83651 -1.37692,0.0998 c -1.60462,0.11638 -1.47053,0.4195 -2.19011,-4.95073 -0.26123,-1.94963 -0.53607,-3.60586 -0.610728,-3.68052 -0.07466,-0.0747 -0.225149,0.71234 -0.334416,1.7489 -0.109217,1.03656 -0.368797,3.0234 -0.576742,4.4152 l -0.378078,2.53054 h -1.429651 c -0.786317,0 -1.429651,-0.13441 -1.429651,-0.29867 z m 13.060856,-8.84394 v -9.14259 h 2.77544 c 2.74277,0 2.77542,0.01 2.77542,0.8163 0,0.74979 -0.11971,0.81631 -1.46934,0.81631 h -1.46935 v 3.10195 3.10195 h 1.14283 c 1.05212,0 1.14282,0.0777 1.14282,0.97956 0,0.90182 -0.0907,0.97957 -1.14282,0.97957 h -1.14283 v 3.08318 3.08318 l 1.38771,0.10045 c 1.30255,0.0943 1.394,0.16553 1.49004,1.16159 l 0.1023,1.0612 h -2.79611 -2.79612 z m 28.73387,0 v -9.14259 h 1.06506 1.06506 l 1.10779,5.46923 c 0.60929,3.00807 1.187,5.61145 1.28383,5.78527 0.0969,0.17382 0.70699,-2.2506 1.35592,-5.3876 l 1.17987,-5.70364 1.04253,-0.10231 1.04253,-0.10231 v 9.16329 9.16329 h -1.14282 -1.14282 l -0.0363,-3.99989 -0.0363,-3.99989 -0.71165,3.91825 c -0.64182,3.53371 -0.78246,3.9285 -1.43306,4.0226 -0.39677,0.0574 -0.72981,0.0574 -0.74009,0 -0.01,-0.0574 -0.36352,-1.94102 -0.78502,-4.18586 l -0.76635,-4.08151 -0.0313,4.16315 -0.0312,4.16315 h -1.14283 -1.14282 z m 13.06085,0 v -9.14259 h 2.61217 c 2.56864,0 2.61218,0.0136 2.61218,0.8163 0,0.74979 -0.11971,0.81631 -1.46936,0.81631 h -1.46934 v 3.10195 3.10195 h 1.32777 c 1.25585,0 1.32218,0.0486 1.22446,0.89793 -0.0897,0.77958 -0.26473,0.91129 -1.32778,0.99928 l -1.22445,0.10132 v 3.08224 3.08225 h 1.46934 c 1.46158,0 1.46936,0.006 1.46936,1.14282 v 1.14283 h -2.61218 -2.61217 z"
       id="path1224"
       inkscape:export-filename="C:\Users\g3niu\Documents\favicon.ico"
       inkscape:export-xdpi="100.35"
       inkscape:export-ydpi="100.35" />
    <path
       style="fill:#000000;stroke-width:0.264583"
       id="path1130"
       d="" />
    <path
       style="fill:#000000;stroke-width:0.264583"
       id="path1110"
       d="" />
  </g>
</svg>
